<?xml version="1.0" encoding="utf-8"?>
<!-- Generator: Adobe Illustrator 16.0.0, SVG Export Plug-In . SVG Version: 6.00 Build 0)  -->
<!DOCTYPE svg PUBLIC "-//W3C//DTD SVG 1.1//EN" "http://www.w3.org/Graphics/SVG/1.1/DTD/svg11.dtd">
<svg version="1.1" id="图层_1" xmlns="http://www.w3.org/2000/svg" xmlns:xlink="http://www.w3.org/1999/xlink" x="0px" y="0px"
	 width="36px" height="36px" viewBox="0 0 36 36" enable-background="new 0 0 36 36" xml:space="preserve">
<g>
	<g>
		<path fill="#272636" d="M15.967,6.423c1.193,3.116,0.226,5.7-0.756,7.265c-1.285,2.048-3.205,4.029-3.34,3.967
			c-0.141-0.064-0.493-2.42-0.319-3.939c0.196-1.713,0.011-1.18-0.211-0.683C10.873,14.08,8.277,18.172,8.017,22
			c-0.378,5.545,5.893,8,5.893,8s-1.547-1.469-0.859-4.465c0.687-2.996,1.687-3.217,2.308-3.994
			c0.504-0.631,0.691-1.564,0.627-2.766c0,0,0.969,1.012,0.65,3.494c0,0,2.636-3.838,1.938-6.287
			c-0.122-0.433,4.199,4.184,3.929,8.824c-0.209,3.6-0.981,4.02-1.424,5.193c0,0,5.874-2.098,6.771-7.596
			c0.619-3.791-0.724-8.096-3.064-10.506c-1.947-2.006-1.857-2.098-1.293-0.234c0.738,2.434,0.132,3.658-0.042,3.928
			c-0.089,0.139-0.433-1.877-2.47-5.034c-1.846-2.86-3.57-4.011-4.494-4.372C15.623,5.849,15.803,5.996,15.967,6.423L15.967,6.423z
			 M15.967,6.423"/>
	</g>
	<path fill="#272636" d="M18,36C8.075,36,0,27.925,0,18S8.075,0,18,0s18,8.075,18,18S27.925,36,18,36z M18,2C9.178,2,2,9.178,2,18
		s7.178,16,16,16s16-7.178,16-16S26.822,2,18,2z"/>
</g>
</svg>
